# xmcd CD database file generated by OrangeCD 5.0
#
# Track frame offsets:
#	150
#	21361
#	35221
#	47164
#	66159
#	81174
#	96958
#	113782
#	127844
#	144573
#	172164
#	187118
#	199157
#
# Disc length: 2854 seconds
#
# Revision: 0
# Processed by: cddbd v1.5.1PL0 Copyright (c) Steve Scherf et al.
# Submitted via: OrangeCD 5.0
#
DISCID=c20b240d
DTITLE=Jimmy Little - Down The Road
DYEAR=2004
DGENRE=Country
TTITLE0=Down The Road
TTITLE1=I Don't Know Why I Love You (But I Do)
TTITLE2=Reach Out
TTITLE3=All Your Future Days
TTITLE4=Before You Fall
TTITLE5=Smooth Sailing
TTITLE6=Give Me My Guitar
TTITLE7=There Must Be A Way
TTITLE8=Summer Rain
TTITLE9=A Reason For It All
TTITLE10=Pearls Of Wisdom
TTITLE11=Living A Lie
TTITLE12=When I Dream
EXTD=
EXTT0=
EXTT1=
EXTT2=
EXTT3=
EXTT4=
EXTT5=
EXTT6=
EXTT7=
EXTT8=
EXTT9=
EXTT10=
EXTT11=
EXTT12=
PLAYORDER=
